:SAMPLES-PER-SECOND 30
:FULLY-SPECIFIED
:DEGREES
451
root  60.7168 38.5901 -1.59467 -33.6214 -82.4758 41.8246
RightUpLeg  -30.5952 -13.2023 -5.90208
RightLeg  8.58071 -21.711 5.53947
RightFoot  12.7042 2.12296 -9.52656
RightToes  2.32829e-010 0 -3.6325e-017
Spine  50.2819 -3.90063 8.16599
Spine1  6.60785 0.207506 -2.84299
HEad  2.36581 11.9044 -17.1564
LeftShoulder1  11.9822 -19.2582 -45.8781
LeftArm  -4.69157 1.39482 -26.127
LeftForeArm  17.105 -15.1851 -5.77896
LeftHand  -0.244104 0.0205437 5.32207
RightShoulder  5.81926 12.1575 31.1997
RightArm  15.7804 15.2506 31.9622
RightForeArm  -22.5641 18.5834 7.83438
RightHand  -2.37325 5.16442 -25.964
LeftUpLeg  -24.2852 3.91058 -2.76995
LeftLeg  57.0032 5.87644 10.162
LeftFoot  -8.99553 0.083303 -1.35889
LeftToes  1.42787e-010 7.94111e-011 2.6399e-011
452
root  61.2695 38.4865 -1.33575 -31.0139 -82.301 38.2935
RightUpLeg  -29.67 -13.089 -6.42798
RightLeg  7.19684 -22.1782 5.92405
RightFoot  13.7942 2.06617 -8.81639
RightToes  2.32829e-010 0 -3.6325e-017
Spine  48.0535 -3.95039 8.13007
Spine1  6.74724 0.0553323 -2.93852
HEad  3.16994 12.8594 -16.9916
LeftShoulder1  11.6914 -18.7187 -45.8577
LeftArm  -4.63186 5.59953 -25.8506
LeftForeArm  15.802 -17.1654 -5.06582
LeftHand  -0.244104 0.0205437 5.32207
RightShoulder  5.87399 11.9601 32.0353
RightArm  21.4242 9.50549 32.1851
RightForeArm  -24.6149 20.0354 7.31899
RightHand  -2.29771 4.79867 -26.0296
LeftUpLeg  -19.3457 3.30044 -2.07069
LeftLeg  54.36 6.7467 10.4831
LeftFoot  -11.0141 0.0675248 -0.463697
LeftToes  1.42787e-010 7.94111e-011 2.6399e-011
453
root  61.8797 38.3677 -1.07511 -27.7662 -81.6972 34.1426
RightUpLeg  -28.6284 -13.2236 -7.11838
RightLeg  5.4517 -22.6865 6.29328
RightFoot  14.922 1.88247 -7.61112
RightToes  2.32829e-010 0 -3.6325e-017
Spine  45.9334 -3.99842 7.88553
Spine1  6.82321 -0.299319 -2.75937
HEad  3.50698 13.0162 -16.2891
LeftShoulder1  11.5487 -18.3038 -46.1741
LeftArm  -4.78078 8.52546 -25.1538
LeftForeArm  14.8269 -18.3878 -4.70085
LeftHand  -0.244104 0.0205437 5.32207
RightShoulder  5.95862 11.7016 33.239
RightArm  25.4396 3.70783 31.946
RightForeArm  -25.8827 21.6601 6.6949
RightHand  -2.32915 4.76268 -26.4616
LeftUpLeg  -14.2603 1.85382 -1.64554
LeftLeg  48.3569 7.17158 9.01457
LeftFoot  -12.7769 0.0558729 -1.45692
LeftToes  1.42787e-010 7.94111e-011 2.6399e-011
454
root  62.5538 38.2513 -0.793116 -26.6774 -81.2312 31.9589
RightUpLeg  -27.1813 -13.2073 -7.89407
RightLeg  2.93907 -23.4595 6.77749
RightFoot  16.3629 1.63062 -6.14874
RightToes  2.32829e-010 0 -3.6325e-017
Spine  44.1066 -3.80315 7.27863
Spine1  6.73813 -0.478861 -2.70102
HEad  3.68445 12.2586 -14.8999
LeftShoulder1  11.5502 -18.0886 -46.6566
LeftArm  -4.96789 10.3822 -24.2446
LeftForeArm  14.103 -18.9088 -4.57754
LeftHand  -0.244104 0.0205437 5.32207
RightShoulder  6.09574 11.5065 34.6489
RightArm  27.018 -2.25042 31.3805
RightForeArm  -25.9053 23.2289 6.29606
RightHand  -2.26263 4.53791 -26.2889
LeftUpLeg  -8.88561 1.10035 -1.54004
LeftLeg  39.9976 6.88636 6.54547
LeftFoot  -14.9084 -0.0862225 -5.35814
LeftToes  1.42787e-010 7.94111e-011 2.6399e-011
455
root  63.3036 38.1192 -0.47892 -29.4927 -81.7367 33.5637
RightUpLeg  -25.5632 -12.9143 -8.38642
RightLeg  -0.0259406 -23.7822 7.57165
RightFoot  17.1558 1.04127 -3.63075
RightToes  2.32829e-010 0 -3.6325e-017
Spine  42.6215 -3.14905 5.99785
Spine1  6.48292 -0.266852 -3.04716
HEad  3.72516 11.285 -13.1394
LeftShoulder1  11.3926 -17.8382 -46.5575
LeftArm  -5.51517 11.6952 -23.9389
LeftForeArm  13.8048 -19.3094 -4.468
LeftHand  -0.244104 0.0205437 5.32207
RightShoulder  6.18049 11.4218 35.4354
RightArm  27.3961 -7.66485 31.6186
RightForeArm  -25.23 24.0455 6.29133
RightHand  -1.96378 3.67173 -25.021
LeftUpLeg  -3.97724 2.92974 -1.61092
LeftLeg  32.0228 6.1904 4.50388
LeftFoot  -18.335 -0.42244 -8.78405
LeftToes  1.42787e-010 7.94111e-011 2.6399e-011
456
root  64.1233 37.9843 -0.16526 -34.8738 -82.7303 37.9047
RightUpLeg  -23.8895 -12.6561 -8.79706
RightLeg  -3.16762 -23.4548 8.66978
RightFoot  15.8519 -0.268959 1.62452
RightToes  2.32829e-010 0 -3.6325e-017
Spine  41.0054 -2.23387 3.8913
Spine1  6.52262 -0.0966019 -3.23943
HEad  3.21649 10.7588 -11.5808
LeftShoulder1  11.0227 -17.451 -45.8602
LeftArm  -6.43706 12.6254 -24.3252
LeftForeArm  13.7734 -20.2569 -4.28435
LeftHand  -0.244104 0.0205437 5.32207
RightShoulder  6.12745 11.3068 35.3995
RightArm  27.8642 -11.5577 33.0583
RightForeArm  -24.7052 23.8468 6.26381
RightHand  -1.54272 2.31838 -23.1598
LeftUpLeg  -1.11736 6.70399 -1.79013
LeftLeg  27.3457 5.47824 3.40417
LeftFoot  -22.2624 -0.639701 -8.17975
LeftToes  1.42787e-010 7.94111e-011 2.6399e-011
457
root  64.9702 37.8695 0.10134 -37.0614 -83.0084 39.1291
RightUpLeg  -21.9832 -12.7533 -9.60823
RightLeg  -6.07529 -24.0028 9.78807
RightFoot  12.3514 -1.82505 9.16448
RightToes  2.32829e-010 0 -3.6325e-017
Spine  39.0151 -1.67533 1.43639
Spine1  6.98919 -0.52908 -2.74933
HEad  2.21393 10.6035 -10.3242
LeftShoulder1  10.7076 -17.1062 -45.2765
LeftArm  -7.28563 13.1485 -24.5657
LeftForeArm  13.5566 -21.8531 -4.18859
LeftHand  -0.244104 0.0205437 5.32207
RightShoulder  6.02263 11.0302 35.4672
RightArm  26.7552 -13.9295 34.7481
RightForeArm  -23.0842 23.1458 6.16842
RightHand  -1.21475 1.14434 -21.5508
LeftUpLeg  -0.795452 9.56321 -1.99094
LeftLeg  26.7943 4.89085 3.02567
LeftFoot  -24.7434 -0.485369 -5.35518
LeftToes  1.42787e-010 7.94111e-011 2.6399e-011
458
root  65.7556 37.8478 0.315477 -33.9782 -82.6014 34.7537
RightUpLeg  -20.0786 -13.1579 -10.6343
RightLeg  -7.22719 -26.4438 10.4881
RightFoot  8.2536 -2.48232 14.5387
RightToes  2.32829e-010 0 -3.6325e-017
Spine  37.3258 -1.66733 -0.570398
Spine1  7.34761 -1.31281 -2.12475
HEad  1.74024 10.3347 -9.09065
LeftShoulder1  10.5776 -16.9031 -45.1685
LeftArm  -7.86729 13.5649 -24.2525
LeftForeArm  13.1374 -23.5717 -4.3533
LeftHand  -0.244104 0.0205437 5.32207
RightShoulder  5.97698 10.6577 36.2186
RightArm  22.5345 -15.9437 36.0321
RightForeArm  -20.0112 22.6976 6.05547
RightHand  -1.06503 0.553008 -20.7697
LeftUpLeg  -1.2197 10.4173 -1.96267
LeftLeg  27.8767 4.2057 2.76449
LeftFoot  -24.8329 -0.308004 -3.85874
LeftToes  1.42787e-010 7.94111e-011 2.6399e-011
459
root  66.4811 38.0168 0.549902 -29.5656 -83.1506 28.7838
RightUpLeg  -18.5201 -13.2904 -10.6863
RightLeg  -6.02022 -28.8851 10.5107
RightFoot  6.08395 -2.06064 13.6371
RightToes  2.32829e-010 0 -3.6325e-017
Spine  36.3396 -1.77428 -0.923638
Spine1  7.3329 -1.60773 -1.99833
HEad  2.65044 9.89337 -7.90409
LeftShoulder1  10.4778 -16.6521 -45.3064
LeftArm  -8.38868 14.2897 -23.9515
LeftForeArm  12.8697 -24.9186 -4.65633
LeftHand  -0.244104 0.0205437 5.32207
RightShoulder  5.95064 10.3292 37.0072
RightArm  16.8616 -18.359 37.3802
RightForeArm  -17.6183 22.6251 5.91844
RightHand  -1.05421 0.43778 -20.9423
LeftUpLeg  -0.916656 10.9693 -1.21815
LeftLeg  28.0984 3.73594 2.51619
LeftFoot  -23.5262 -0.277238 -3.92208
LeftToes  1.42787e-010 7.94111e-011 2.6399e-011
460
root  67.1185 38.3168 0.808315 -26.9044 -85.0861 24.7064
RightUpLeg  -18.5495 -14.3472 -9.2403
RightLeg  0.220212 -26.6638 7.99474
RightFoot  5.26072 -1.32701 9.32462
RightToes  2.32829e-010 0 -3.6325e-017
Spine  35.2431 -1.63399 -0.212755
Spine1  7.15216 -1.17979 -2.47984
HEad  4.50401 9.76826 -7.02651
LeftShoulder1  10.2653 -16.1893 -45.4376
LeftArm  -9.13997 15.4375 -24.1887
LeftForeArm  13.0243 -25.8766 -4.86086
LeftHand  -0.244104 0.0205437 5.32207
RightShoulder  5.88163 10.0998 37.2192
RightArm  12.6569 -20.5673 39.0285
RightForeArm  -16.8481 22.329 5.89942
RightHand  -1.0734 0.422458 -21.3841
LeftUpLeg  0.155555 12.3857 -0.163359
LeftLeg  27.016 4.00436 2.56426
LeftFoot  -22.0925 -0.204808 -3.57389
LeftToes  1.42787e-010 7.94111e-011 2.6399e-011
461
root  67.6074 38.6053 1.02088 -23.6174 -87.1697 20.2159
RightUpLeg  -20.0394 -21.1499 -5.20538
RightLeg  10.0585 -14.48 2.97367
RightFoot  4.13042 -0.906466 6.8876
RightToes  2.32829e-010 0 -3.6325e-017
Spine  33.5717 -1.43731 0.373798
Spine1  7.00436 -0.651912 -3.07041
HEad  6.26407 10.2529 -6.39093
LeftShoulder1  10.0059 -15.6251 -45.6044
LeftArm  -10.1631 16.8908 -24.7137
LeftForeArm  13.6033 -26.5665 -4.98378
LeftHand  -0.244104 0.0205437 5.32207
RightShoulder  5.82247 9.97857 37.1716
RightArm  11.2754 -21.8189 40.2445
RightForeArm  -15.8652 21.6603 5.96404
RightHand  -0.936088 -0.170769 -20.6993
LeftUpLeg  1.48589 13.894 0.78196
LeftLeg  25.501 4.64244 2.7568
LeftFoot  -20.6616 -0.0834057 -2.54011
LeftToes  1.42787e-010 7.94111e-011 2.6399e-011
462
root  67.9654 38.877 1.15714 -4.87946 -88.36 0.254395
RightUpLeg  -20.33 -28.3507 -1.26656
RightLeg  17.7668 -1.93833 -0.997655
RightFoot  2.26675 -0.804176 6.87823
RightToes  2.32829e-010 0 -3.6325e-017
Spine  31.9355 -1.50844 0.841233
Spine1  6.75499 -0.56713 -3.2578
HEad  7.5862 10.9788 -5.70508
LeftShoulder1  9.81492 -15.1411 -45.9066
LeftArm  -10.9268 18.6165 -25.0859
LeftForeArm  14.1078 -26.9674 -5.04683
LeftHand  -0.244104 0.0205437 5.32207
RightShoulder  5.8119 9.94117 37.2119
RightArm  11.8637 -22.4154 40.5769
RightForeArm  -13.2319 21.2228 5.94712
RightHand  -0.617082 -1.56279 -18.5073
LeftUpLeg  3.01158 14.7421 1.94701
LeftLeg  23.8892 4.84176 2.68929
LeftFoot  -18.8643 -0.0195768 -2.03478
LeftToes  1.42787e-010 7.94111e-011 2.6399e-011
